<?xml version="1.0" encoding="UTF-8"?>
<svg width="8px" height="18px" viewBox="0 0 8 18" version="1.1" xmlns="http://www.w3.org/2000/svg" xmlns:xlink="http://www.w3.org/1999/xlink">
    <!-- Generator: Sketch 52.5 (67469) - http://www.bohemiancoding.com/sketch -->
    <title>Fill 7867</title>
    <desc>Created with Sketch.</desc>
    <g id="Welcome" stroke="none" stroke-width="1" fill="none" fill-rule="evenodd">
        <g id="Mobile-Portrait" transform="translate(-188.000000, -2198.000000)" fill="#FFFFFF">
            <g id="Group-7" transform="translate(0.000000, 1890.000000)">
                <path d="M189.709121,317.070949 L189.709121,325.773314 C189.709121,325.898519 189.803257,326 189.919399,326 L192.917084,326 C193.033226,326 193.127362,325.898519 193.127362,325.773314 L193.127362,316.929051 L195.300643,316.929051 C195.409857,316.929051 195.50114,316.838992 195.510106,316.721695 L195.719161,314.056818 C195.729757,313.924584 195.632768,313.810802 195.509698,313.810802 L193.127362,313.810802 L193.127362,311.920435 C193.127362,311.477168 193.46071,311.117809 193.871485,311.117809 L195.546782,311.117809 C195.662924,311.117809 195.75706,311.016328 195.75706,310.891123 L195.75706,308.226686 C195.75706,308.101481 195.662924,308 195.546782,308 L192.716179,308 C191.055552,308 189.709121,309.451492 189.709121,311.241696 L189.709121,313.810802 L188.210278,313.810802 C188.094136,313.810802 188,313.912284 188,314.037488 L188,316.702365 C188,316.827569 188.094136,316.929051 188.210278,316.929051 L189.709121,316.929051 L189.709121,317.070949" id="Fill-7867"></path>
            </g>
        </g>
    </g>
</svg>