<?xml version="1.0" encoding="UTF-8"?>
<svg width="18px" height="19px" viewBox="0 0 18 19" version="1.1" xmlns="http://www.w3.org/2000/svg" xmlns:xlink="http://www.w3.org/1999/xlink">
    <!-- Generator: Sketch 52.5 (67469) - http://www.bohemiancoding.com/sketch -->
    <title>Group 3</title>
    <desc>Created with Sketch.</desc>
    <g id="Welcome" stroke="none" stroke-width="1" fill="none" fill-rule="evenodd">
        <g id="Mobile-Portrait" transform="translate(-283.000000, -2198.000000)" fill="#FFFFFF">
            <g id="Group-7" transform="translate(0.000000, 1890.000000)">
                <g id="Group-3" transform="translate(283.000000, 308.000000)">
                    <path d="M2.11062857,5.32907052e-14 C3.27497143,5.32907052e-14 4.21817143,0.996685714 4.21817143,2.223 C4.21817143,3.45148571 3.27497143,4.4498 2.11062857,4.4498 C0.9432,4.4498 -3.41060513e-13,3.45148571 -3.41060513e-13,2.223 C-3.41060513e-13,0.996685714 0.9432,5.32907052e-14 2.11062857,5.32907052e-14 Z M0.289542857,18.4804857 L3.93068571,18.4804857 L3.93068571,6.13482857 L0.289542857,6.13482857 L0.289542857,18.4804857 Z" id="Fill-10288"></path>
                    <path d="M6.17142857,5.7342 L9.6588,5.7342 L9.6588,7.42302857 L9.70662857,7.42302857 C10.1926286,6.45131429 11.3785714,5.42857143 13.1492571,5.42857143 C16.83,5.42857143 17.5083429,7.9838 17.5083429,11.3088 L17.5083429,18.0798571 L13.8754286,18.0798571 L13.8754286,12.0774857 C13.8754286,10.6448857 13.8492,8.80351429 11.9859429,8.80351429 C10.0933714,8.80351429 9.80485714,10.3631429 9.80485714,11.9732571 L9.80485714,18.0798571 L6.17142857,18.0798571 L6.17142857,5.7342" id="Fill-10289"></path>
                </g>
            </g>
        </g>
    </g>
</svg>