<?xml version="1.0" encoding="UTF-8"?>
<svg width="146px" height="23px" viewBox="0 0 146 23" version="1.1" xmlns="http://www.w3.org/2000/svg" xmlns:xlink="http://www.w3.org/1999/xlink">
    <!-- Generator: Sketch 52.5 (67469) - http://www.bohemiancoding.com/sketch -->
    <title>Group</title>
    <desc>Created with Sketch.</desc>
    <g id="Welcome" stroke="none" stroke-width="1" fill="none" fill-rule="evenodd">
        <g id="Desktop-HD" transform="translate(-102.000000, -28.000000)">
            <g id="Group" transform="translate(102.000000, 28.000000)">
                <path d="M83.8119715,6 L82.2669444,13.028037 C81.8041335,15.1417208 79.9250031,17.1566056 77.5042284,17.1566056 C76.2182253,17.1566056 75.1874923,16.591455 75.1874923,15.3879504 C75.1874923,14.9451467 75.3939606,13.8890727 75.4963904,13.4222091 L77.1964028,6 L75.0073017,6 L73.3861227,13.2502067 C73.1544491,14.2330774 73,15.1908643 73,15.7319551 C73,17.9684977 74.2093148,19 76.7073141,19 C78.5349614,19 80.3368673,18.2131916 81.4437523,16.7885411 L81.4952353,16.7885411 L81.0833711,18.7051388 L83.1941752,18.7051388 L86,6 L83.8119715,6" id="Fill-1" fill="#BBAE92"></path>
                <path d="M92.6145848,16.5378664 C90.4761989,16.5378664 89.3043571,15.1267085 89.3043571,13.2204075 C89.3043571,10.5466346 91.1631773,6.8573025 94.4484722,6.8573025 C96.8170887,6.8573025 97.8356203,8.16943179 97.8356203,10.2495487 C97.8356203,13.0723803 96.052129,16.5378664 92.6145848,16.5378664 Z M94.8298911,5 C93.0734545,5 91.7742962,5.47038597 90.4761989,7.12963122 L90.4242113,7.12963122 L90.8830811,5.29708588 L88.8460178,5.29708588 L85,23 L87.1399774,23 L88.5404583,16.1417519 L88.5913849,16.1417519 C89.1001202,17.8505115 91.0862569,18.3951689 92.6909747,18.3951689 C97.3008912,18.3951689 100,14.1364222 100,10.2495487 C100,7.12963122 98.1921064,5 94.8298911,5 Z" id="Fill-2" fill="#BBAE92"></path>
                <path d="M105.614062,16.5378664 C103.475525,16.5378664 102.3036,15.1267085 102.3036,13.2204075 C102.3036,10.5466346 104.162552,6.8573025 107.44808,6.8573025 C109.816864,6.8573025 110.835467,8.16943179 110.835467,10.2495487 C110.835467,13.0723803 109.05185,16.5378664 105.614062,16.5378664 Z M107.830586,5 C106.072965,5 104.773714,5.47038597 103.475525,7.12963122 L103.424595,7.12963122 L103.882436,5.29708588 L101.845229,5.29708588 L98,23 L100.139068,23 L101.539648,16.1417519 L101.590578,16.1417519 C102.10041,17.8505115 104.086687,18.3951689 105.690988,18.3951689 C110.3007,18.3951689 113,14.1364222 113,10.2495487 C113,7.12963122 111.191978,5 107.830586,5 Z" id="Fill-3" fill="#BBAE92"></path>
                <polyline id="Fill-4" fill="#BBAE92" points="116.82998 1 113 19 115.17002 19 119 1 116.82998 1"></polyline>
                <polyline id="Fill-5" fill="#BBAE92" points="124 0 121.611808 0 121 3 123.389929 3 124 0"></polyline>
                <polyline id="Fill-6" fill="#BBAE92" points="120.798403 6 118 19 120.202676 19 123 6 120.798403 6"></polyline>
                <path d="M129.903015,6.94116515 C132.228589,6.94116515 133.045013,8.83058026 132.896572,10.7194563 L125.473499,10.7194563 C126.092518,8.64945516 127.428486,6.94116515 129.903015,6.94116515 Z M128.418091,17.0588349 C126.711021,17.0588349 125.102912,15.8944592 125.102912,13.824458 C125.102912,13.4368719 125.127137,13.0482076 125.176617,12.6600824 L134.801563,12.6600824 C134.875784,12.2978322 135,11.6245428 135,10.9259174 C135,7.14816526 133.341895,5 129.580878,5 C126.067262,5 123,8.49366601 123,13.617997 C123,15.9467483 124.187011,19 128.418091,19 C131.213727,19 133.540332,17.4474991 134.207285,14.4972084 L132.104372,14.4972084 C131.510609,16.1532093 130.249377,17.0588349 128.418091,17.0588349 Z" id="Fill-7" fill="#BBAE92"></path>
                <path d="M141.933261,11.1070425 C140.267368,10.3830811 138.601475,9.89145585 138.601475,8.64945516 C138.601475,7.30341535 140.022384,6.94116515 141.296302,6.94116515 C142.741709,6.94116515 144.015627,7.71741558 143.917634,9.24404143 L146,9.24404143 C146,6.11316468 143.575166,5 141.222296,5 C138.870958,5 136.518088,6.37191483 136.518088,8.85591621 C136.518088,10.8747064 138.185002,11.7803319 139.875393,12.4789573 C141.541286,13.2034577 143.207179,13.720958 143.207179,15.0152478 C143.207179,16.5418736 141.663778,17.0588349 140.316365,17.0588349 C138.576977,17.0588349 136.983558,16.4637095 137.082572,14.4718725 L135.000206,14.4718725 C134.975197,17.8873744 137.229053,19 140.119867,19 C142.57022,19 145.289546,17.8356244 145.289546,14.8594586 C145.289546,12.7630434 143.598644,11.8320819 141.933261,11.1070425" id="Fill-8" fill="#BBAE92"></path>
                <path d="M68.4802123,8.58566336 L65.9826525,7.92477999 C64.2915964,7.46708254 62.9636837,6.75646096 62.9636837,5.00345327 C62.9636837,2.84460287 65.4357693,2.03238833 67.2574486,2.03238833 C69.8070409,2.03238833 71.602162,2.92132672 71.5241132,5.79079871 L73.9961988,5.79079871 C74.125738,1.75247856 70.9257395,0 67.2574486,0 C63.9528432,0 60.4926822,1.75247856 60.4926822,5.2579648 C60.4926822,7.92477999 62.4439008,9.2460176 64.6552818,9.82964799 L67.1793999,10.4900022 C69.0005372,10.9725688 70.4834633,11.632923 70.4834633,13.4875237 C70.4834633,15.9262838 68.142001,16.9670825 65.826555,16.9670825 C63.5994558,16.9670825 61.8861775,16.382923 61.201625,14.762727 L59,15.9326334 C60.0937664,18.0406873 62.5772341,19 65.721948,19 C69.078586,19 72.9550069,17.2210649 72.9550069,13.4875237 C72.9550069,10.236549 70.7956583,9.19522112 68.4802123,8.58566336" id="Fill-9" fill="#BBAE92"></path>
                <path d="M3.1064413,9.49947087 C3.1064413,12.980088 4.69745698,16.4088504 8.50025887,16.4088504 C12.302543,16.4088504 13.8935587,12.980088 13.8935587,9.49947087 C13.8935587,6.019912 12.302543,2.59062047 8.50025887,2.59062047 C4.69745698,2.59062047 3.1064413,6.019912 3.1064413,9.49947087 Z M17,9.49947087 C17,14.6812409 13.8184864,19 8.50025887,19 C3.18151363,19 0,14.6812409 0,9.49947087 C0,4.31822992 3.18151363,0 8.50025887,0 C13.8184864,0 17,4.31822992 17,9.49947087 Z" id="Fill-10" fill="#DA2D83"></path>
                <path d="M17,5.96633213 L19.2076429,5.96633213 L19.2076429,4.88242502 C19.2076429,1.55508227 20.9997295,1 22.9216774,1 C23.8566791,1 24.5319581,1.05093943 25,1.17644999 L25,3.42093593 C24.610416,3.31958221 24.2208319,3.26916793 23.6229286,3.26916793 C22.8183294,3.26916793 22.1684816,3.54644649 22.1684816,4.63087875 L22.1684816,5.96633213 L24.6883328,5.96633213 L24.6883328,8.1089392 L22.1684816,8.1089392 L22.1684816,19 L19.2076429,19 L19.2076429,8.1089392 L17,8.1089392 L17,5.96633213" id="Fill-11" fill="#DA2D83"></path>
                <path d="M24,5.96633213 L26.2076429,5.96633213 L26.2076429,4.88242502 C26.2076429,1.55508227 27.9997295,1 29.9216774,1 C30.8566791,1 31.5319581,1.05093943 32,1.17644999 L32,3.42093593 C31.610416,3.31958221 31.2208319,3.26916793 30.6229286,3.26916793 C29.8183294,3.26916793 29.1684816,3.54644649 29.1684816,4.63087875 L29.1684816,5.96633213 L31.6883328,5.96633213 L31.6883328,8.1089392 L29.1684816,8.1089392 L29.1684816,19 L26.2076429,19 L26.2076429,8.1089392 L24,8.1089392 L24,5.96633213" id="Fill-12" fill="#DA2D83"></path>
                <path d="M32,19 L35,19 L35,5.96633213 L32,5.96633213 L32,19 Z M32,3.72342164 L35,3.72342164 L35,1 L32,1 L32,3.72342164 Z" id="Fill-13" fill="#DA2D83"></path>
                <path d="M45.1969606,9.8033025 C44.9751558,8.18561272 43.8441048,7.31174987 42.2950568,7.31174987 C40.844361,7.31174987 38.8035516,8.10801926 38.8035516,12.1412736 C38.8035516,14.350279 39.7373858,16.6882501 42.1721165,16.6882501 C43.7949287,16.6882501 44.9259797,15.5575262 45.1969606,13.6572892 L48,13.6572892 C47.4836506,17.0986928 45.4428413,19 42.1721165,19 C38.1883377,19 36,16.0455623 36,12.1412736 C36,8.13370537 38.0899855,5 42.2704687,5 C45.2210365,5 47.7295313,6.54116658 48,9.8033025 L45.1969606,9.8033025" id="Fill-14" fill="#DA2D83"></path>
                <path d="M58.9538221,10.8307469 C58.8485108,8.98134699 57.5651324,7.31174987 55.5483948,7.31174987 C53.4792745,7.31174987 52.0649391,8.85345157 51.9863649,10.8307469 L58.9538221,10.8307469 Z M51.9863649,12.7572051 C51.9863649,14.8383151 53.1382407,16.6882501 55.626969,16.6882501 C57.3556012,16.6882501 58.4032571,15.9428178 58.927085,14.4787096 L61.7563015,14.4787096 C61.1015166,17.3823102 58.5865968,19 55.626969,19 C51.3834171,19 49,16.0974696 49,12.0128431 C49,8.23644981 51.5143741,5 55.5483948,5 C59.8181381,5 62.4372778,8.77585811 61.9396413,12.7572051 L51.9863649,12.7572051 Z" id="Fill-15" fill="#DA2D83"></path>
            </g>
        </g>
    </g>
</svg>