<?xml version="1.0" encoding="UTF-8"?>
<svg width="21px" height="18px" viewBox="0 0 21 18" version="1.1" xmlns="http://www.w3.org/2000/svg" xmlns:xlink="http://www.w3.org/1999/xlink">
    <!-- Generator: Sketch 52.5 (67469) - http://www.bohemiancoding.com/sketch -->
    <title>Fill 1140</title>
    <desc>Created with Sketch.</desc>
    <g id="Welcome" stroke="none" stroke-width="1" fill="none" fill-rule="evenodd">
        <g id="Mobile-Portrait" transform="translate(-230.000000, -2199.000000)" fill="#FFFFFF">
            <g id="Group-7" transform="translate(0.000000, 1890.000000)">
                <path d="M250.351054,311.111875 C249.702634,311.419005 248.984502,311.605859 248.284823,311.728818 C248.616978,311.670829 249.104959,311.040463 249.300767,310.785417 C249.599604,310.396673 249.847183,309.953698 249.986606,309.475285 L249.981993,309.362528 L249.872299,309.372193 C249.091119,309.810872 248.282772,310.129277 247.422142,310.354255 C247.350892,310.373047 247.298096,310.354255 247.252989,310.307541 C247.181739,310.223241 247.115103,310.143774 247.039241,310.077731 C246.677355,309.755568 246.289328,309.502669 245.852093,309.316352 C245.277998,309.07097 244.650081,308.966804 244.031903,309.009222 C243.429615,309.05003 242.838604,309.227757 242.304491,309.519851 C241.769352,309.81302 241.291622,310.220557 240.911284,310.711856 C240.518131,311.220874 240.228008,311.821172 240.079358,312.457981 C239.935834,313.07224 239.947624,313.680054 240.035276,314.300756 C240.048603,314.403848 240.039889,314.417809 239.950699,314.403848 C236.585577,313.879259 233.795575,312.617989 231.530974,309.914502 C231.43307,309.797449 231.379761,309.797449 231.298773,309.92363 C230.307945,311.479679 230.78875,313.979129 232.026644,315.207646 C232.191696,315.371412 232.361362,315.535179 232.544355,315.684985 C232.477719,315.698945 231.653482,315.605518 230.91946,315.207646 C230.821556,315.142676 230.771835,315.180262 230.763121,315.296778 C230.753895,315.46484 230.767734,315.619478 230.789775,315.802037 C230.979945,317.379027 232.022543,318.83789 233.450606,319.407582 C233.620271,319.482217 233.807877,319.547723 233.990358,319.57994 C233.665379,319.655111 233.330148,319.708268 232.397243,319.632023 C232.280886,319.608398 232.236804,319.669072 232.280886,319.786124 C232.982103,321.787833 234.495767,322.383298 235.629093,322.722644 C235.780818,322.750564 235.932543,322.750564 236.084781,322.78815 L236.057614,322.816071 C235.681889,323.416369 234.378385,323.863639 233.771484,324.085395 C232.667375,324.48971 231.465363,324.671732 230.298719,324.550921 C230.112138,324.522463 230.072669,324.524611 230.022435,324.550921 C229.971177,324.584211 230.015772,324.630925 230.075744,324.681934 C230.312559,324.8457 230.553474,324.990674 230.799002,325.130815 C231.539688,325.54211 232.312666,325.869643 233.119988,326.103748 C237.291919,327.31025 241.990788,326.423764 245.123197,323.16347 C247.582581,320.603882 248.444749,317.073509 248.444749,313.538303 C248.444749,313.400309 248.600575,313.323527 248.693353,313.25104 C249.333572,312.746855 249.849746,312.144409 250.326962,311.471088 C250.434093,311.320208 250.435118,311.185436 250.435118,311.130668 L250.435118,311.111875 C250.435118,311.055497 250.434093,311.072142 250.351054,311.111875" id="Fill-1140"></path>
            </g>
        </g>
    </g>
</svg>